<?xml version="1.0" encoding="UTF-8" standalone="no"?><!DOCTYPE svg PUBLIC "-//W3C//DTD SVG 1.1//EN" "http://www.w3.org/Graphics/SVG/1.1/DTD/svg11.dtd"><!-- Generated by graphviz version 2.40.1 (20161225.0304)
 --><!-- Title: windep Pages: 1 --><svg xmlns="http://www.w3.org/2000/svg" xmlns:xlink="http://www.w3.org/1999/xlink" width="909pt" height="202pt" viewBox="0.00 0.00 909.32 201.55">
<g id="graph0" class="graph" transform="scale(1 1) rotate(0) translate(4 197.5454)">
<title>windep</title>
<!-- windep.exe -->
<g id="node1" class="node">
<title>windep.exe</title>
<polygon fill="none" stroke="#1e90ff" stroke-width="2" points="86.6993,-141.4307 .1001,-141.4307 .1001,-105.4307 86.6993,-105.4307 86.6993,-141.4307"/>
<text text-anchor="middle" x="43.3997" y="-119.2307" font-family="Helvetica,sans-Serif" font-size="14.00" fill="#1e90ff">windep.exe</text>
</g>
<!-- kernel32.dll -->
<g id="node2" class="node">
<title>kernel32.dll</title>
<polygon fill="none" stroke="#1e90ff" stroke-width="2" points="667.1945,-147.4307 580.0591,-147.4307 580.0591,-111.4307 667.1945,-111.4307 667.1945,-147.4307"/>
<text text-anchor="middle" x="623.6268" y="-125.2307" font-family="Helvetica,sans-Serif" font-size="14.00" fill="#1e90ff">kernel32.dll</text>
</g>
<!-- windep.exe&#45;&gt;kernel32.dll -->
<g id="edge1" class="edge">
<title>windep.exe-&gt;kernel32.dll</title>
<path fill="none" stroke="#1e90ff" d="M68.4519,-141.6435C83.4192,-151.3811 103.2692,-162.3811 122.7994,-167.4307 184.0884,-183.2774 314.363,-217.4245 543.8428,-166.4307 557.3829,-163.4219 571.3601,-157.8893 583.7592,-152.0029"/>
<polygon fill="#1e90ff" stroke="#1e90ff" points="585.4969,-155.048 592.8999,-147.4686 582.3861,-148.7771 585.4969,-155.048"/>
</g>
<!-- msvcp140.dll -->
<g id="node3" class="node">
<title>msvcp140.dll</title>
<polygon fill="none" stroke="#1e90ff" stroke-width="2" points="220.316,-141.4307 122.9602,-141.4307 122.9602,-105.4307 220.316,-105.4307 220.316,-141.4307"/>
<text text-anchor="middle" x="171.6381" y="-119.2307" font-family="Helvetica,sans-Serif" font-size="14.00" fill="#1e90ff">msvcp140.dll</text>
</g>
<!-- windep.exe&#45;&gt;msvcp140.dll -->
<g id="edge2" class="edge">
<title>windep.exe-&gt;msvcp140.dll</title>
<path fill="none" stroke="#1e90ff" d="M86.8154,-123.4307C95.0671,-123.4307 103.8312,-123.4307 112.4745,-123.4307"/>
<polygon fill="#1e90ff" stroke="#1e90ff" points="112.5276,-126.9308 122.5276,-123.4307 112.5276,-119.9308 112.5276,-126.9308"/>
</g>
<!-- ucrtbase.dll -->
<g id="node4" class="node">
<title>ucrtbase.dll</title>
<polygon fill="none" stroke="#1e90ff" stroke-width="2" points="667.1959,-54.4307 580.0577,-54.4307 580.0577,-18.4307 667.1959,-18.4307 667.1959,-54.4307"/>
<text text-anchor="middle" x="623.6268" y="-32.2307" font-family="Helvetica,sans-Serif" font-size="14.00" fill="#1e90ff">ucrtbase.dll</text>
</g>
<!-- windep.exe&#45;&gt;ucrtbase.dll -->
<g id="edge3" class="edge">
<title>windep.exe-&gt;ucrtbase.dll</title>
<path fill="none" stroke="#1e90ff" d="M69.756,-105.2294C108.5414,-79.6993 184.2316,-34.5706 256.4768,-18.4307 381.1292,9.4172 417.1737,.9605 543.8428,-15.4307 552.3168,-16.5273 561.174,-18.2531 569.7756,-20.2555"/>
<polygon fill="#1e90ff" stroke="#1e90ff" points="569.1698,-23.711 579.7174,-22.7119 570.8489,-16.9153 569.1698,-23.711"/>
</g>
<!-- vcruntime140.dll -->
<g id="node5" class="node">
<title>vcruntime140.dll</title>
<polygon fill="none" stroke="#1e90ff" stroke-width="2" points="543.793,-141.4307 425.9922,-141.4307 425.9922,-105.4307 543.793,-105.4307 543.793,-141.4307"/>
<text text-anchor="middle" x="484.8926" y="-119.2307" font-family="Helvetica,sans-Serif" font-size="14.00" fill="#1e90ff">vcruntime140.dll</text>
</g>
<!-- windep.exe&#45;&gt;vcruntime140.dll -->
<g id="edge4" class="edge">
<title>windep.exe-&gt;vcruntime140.dll</title>
<path fill="none" stroke="#1e90ff" d="M86.8378,-141.0552C98.3387,-144.9276 110.8766,-148.459 122.7994,-150.4307 223.9268,-167.1547 342.6698,-151.7411 415.8525,-138.2681"/>
<polygon fill="#1e90ff" stroke="#1e90ff" points="416.6896,-141.6721 425.87,-136.3834 415.3952,-134.7928 416.6896,-141.6721"/>
</g>
<!-- vcruntime140_1.dll -->
<g id="node6" class="node">
<title>vcruntime140_1.dll</title>
<polygon fill="none" stroke="#1e90ff" stroke-width="2" points="390.176,-95.4307 256.2432,-95.4307 256.2432,-59.4307 390.176,-59.4307 390.176,-95.4307"/>
<text text-anchor="middle" x="323.2096" y="-73.2307" font-family="Helvetica,sans-Serif" font-size="14.00" fill="#1e90ff">vcruntime140_1.dll</text>
</g>
<!-- windep.exe&#45;&gt;vcruntime140_1.dll -->
<g id="edge5" class="edge">
<title>windep.exe-&gt;vcruntime140_1.dll</title>
<path fill="none" stroke="#1e90ff" d="M86.9837,-106.5749C98.4826,-102.6921 110.9831,-98.9635 122.7994,-96.4307 162.9382,-87.827 208.4332,-83.1186 245.9197,-80.5422"/>
<polygon fill="#1e90ff" stroke="#1e90ff" points="246.5169,-84.0109 256.2693,-79.8706 246.0636,-77.0256 246.5169,-84.0109"/>
</g>
<!-- kernelbase.dll -->
<g id="node7" class="node">
<title>kernelbase.dll</title>
<polygon fill="none" stroke="#1e90ff" stroke-width="2" points="805.9352,-87.4307 703.2356,-87.4307 703.2356,-51.4307 805.9352,-51.4307 805.9352,-87.4307"/>
<text text-anchor="middle" x="754.5854" y="-65.2307" font-family="Helvetica,sans-Serif" font-size="14.00" fill="#1e90ff">kernelbase.dll</text>
</g>
<!-- kernel32.dll&#45;&gt;kernelbase.dll -->
<g id="edge15" class="edge">
<title>kernel32.dll-&gt;kernelbase.dll</title>
<path fill="none" stroke="#1e90ff" d="M662.9187,-111.4287C676.3918,-105.2559 691.6359,-98.2716 705.7703,-91.7958"/>
<polygon fill="#1e90ff" stroke="#1e90ff" points="707.2352,-94.9746 714.8686,-87.6274 704.3195,-88.6107 707.2352,-94.9746"/>
</g>
<!-- ntdll.dll -->
<g id="node8" class="node">
<title>ntdll.dll</title>
<polygon fill="none" stroke="#1e90ff" stroke-width="2" points="901.0947,-87.4307 841.9807,-87.4307 841.9807,-51.4307 901.0947,-51.4307 901.0947,-87.4307"/>
<text text-anchor="middle" x="871.5377" y="-65.2307" font-family="Helvetica,sans-Serif" font-size="14.00" fill="#1e90ff">ntdll.dll</text>
</g>
<!-- kernel32.dll&#45;&gt;ntdll.dll -->
<g id="edge16" class="edge">
<title>kernel32.dll-&gt;ntdll.dll</title>
<path fill="none" stroke="#1e90ff" d="M667.2523,-132.0105C704.9911,-132.8108 760.462,-130.5094 805.76,-114.4307 819.0601,-109.7098 832.2041,-101.607 843.2049,-93.5667"/>
<polygon fill="#1e90ff" stroke="#1e90ff" points="845.3427,-96.3381 851.1666,-87.4875 841.0945,-90.7745 845.3427,-96.3381"/>
</g>
<!-- msvcp140.dll&#45;&gt;kernel32.dll -->
<g id="edge11" class="edge">
<title>msvcp140.dll-&gt;kernel32.dll</title>
<path fill="none" stroke="#1e90ff" d="M220.588,-133.2211C291.9212,-146.0761 428.5088,-165.3551 543.8428,-150.4307 552.3168,-149.3342 561.174,-147.6083 569.7756,-145.606"/>
<polygon fill="#1e90ff" stroke="#1e90ff" points="570.8489,-148.9461 579.7174,-143.1495 569.1698,-142.1504 570.8489,-148.9461"/>
</g>
<!-- msvcp140.dll&#45;&gt;ucrtbase.dll -->
<g id="edge12" class="edge">
<title>msvcp140.dll-&gt;ucrtbase.dll</title>
<path fill="none" stroke="#1e90ff" d="M186.2958,-105.184C201.673,-87.5703 227.5918,-61.9293 256.4768,-50.4307 361.1908,-8.7458 496.257,-17.9331 569.8954,-27.6265"/>
<polygon fill="#1e90ff" stroke="#1e90ff" points="569.4864,-31.1031 579.8689,-28.9924 570.4363,-24.1678 569.4864,-31.1031"/>
</g>
<!-- msvcp140.dll&#45;&gt;vcruntime140.dll -->
<g id="edge13" class="edge">
<title>msvcp140.dll-&gt;vcruntime140.dll</title>
<path fill="none" stroke="#1e90ff" d="M220.5841,-123.4307C273.0437,-123.4307 356.7397,-123.4307 415.8742,-123.4307"/>
<polygon fill="#1e90ff" stroke="#1e90ff" points="415.8799,-126.9308 425.8798,-123.4307 415.8798,-119.9308 415.8799,-126.9308"/>
</g>
<!-- msvcp140.dll&#45;&gt;vcruntime140_1.dll -->
<g id="edge14" class="edge">
<title>msvcp140.dll-&gt;vcruntime140_1.dll</title>
<path fill="none" stroke="#1e90ff" d="M220.4306,-108.6228C231.0732,-105.3929 242.5326,-101.9151 253.8027,-98.4948"/>
<polygon fill="#1e90ff" stroke="#1e90ff" points="255.08,-101.7649 263.6325,-95.5116 253.0471,-95.0666 255.08,-101.7649"/>
</g>
<!-- ucrtbase.dll&#45;&gt;kernelbase.dll -->
<g id="edge17" class="edge">
<title>ucrtbase.dll-&gt;kernelbase.dll</title>
<path fill="none" stroke="#1e90ff" d="M667.2341,-47.4192C675.5595,-49.5171 684.4178,-51.7493 693.1785,-53.9569"/>
<polygon fill="#1e90ff" stroke="#1e90ff" points="692.4424,-57.3808 702.9945,-56.4304 694.1529,-50.593 692.4424,-57.3808"/>
</g>
<!-- ucrtbase.dll&#45;&gt;ntdll.dll -->
<g id="edge18" class="edge">
<title>ucrtbase.dll-&gt;ntdll.dll</title>
<path fill="none" stroke="#1e90ff" d="M667.2085,-33.5618C704.4394,-32.1294 759.2037,-32.4484 805.76,-42.4307 814.6173,-44.3299 823.8016,-47.3588 832.3976,-50.7137"/>
<polygon fill="#1e90ff" stroke="#1e90ff" points="831.2251,-54.0162 841.804,-54.5973 833.8965,-47.5459 831.2251,-54.0162"/>
</g>
<!-- vcruntime140.dll&#45;&gt;kernel32.dll -->
<g id="edge9" class="edge">
<title>vcruntime140.dll-&gt;kernel32.dll</title>
<path fill="none" stroke="#1e90ff" d="M544.1308,-125.9927C552.6129,-126.3595 561.3016,-126.7353 569.6746,-127.0974"/>
<polygon fill="#1e90ff" stroke="#1e90ff" points="569.5543,-130.5954 579.6962,-127.5308 569.8568,-123.6019 569.5543,-130.5954"/>
</g>
<!-- vcruntime140.dll&#45;&gt;ucrtbase.dll -->
<g id="edge10" class="edge">
<title>vcruntime140.dll-&gt;ucrtbase.dll</title>
<path fill="none" stroke="#1e90ff" d="M513.6384,-105.4043C534.6584,-92.2227 563.362,-74.2227 586.1758,-59.9162"/>
<polygon fill="#1e90ff" stroke="#1e90ff" points="588.3053,-62.7121 594.9178,-54.4341 584.5863,-56.7817 588.3053,-62.7121"/>
</g>
<!-- vcruntime140_1.dll&#45;&gt;kernel32.dll -->
<g id="edge6" class="edge">
<title>vcruntime140_1.dll-&gt;kernel32.dll</title>
<path fill="none" stroke="#1e90ff" d="M390.1997,-77.898C434.3837,-79.4957 493.2296,-84.096 543.8428,-96.4307 554.9939,-99.1483 566.612,-103.1925 577.4202,-107.5266"/>
<polygon fill="#1e90ff" stroke="#1e90ff" points="576.1007,-110.7684 586.6777,-111.3839 578.7931,-104.3069 576.1007,-110.7684"/>
</g>
<!-- vcruntime140_1.dll&#45;&gt;ucrtbase.dll -->
<g id="edge7" class="edge">
<title>vcruntime140_1.dll-&gt;ucrtbase.dll</title>
<path fill="none" stroke="#1e90ff" d="M390.2552,-68.2805C444.4526,-60.8839 519.7426,-50.6085 569.9949,-43.7502"/>
<polygon fill="#1e90ff" stroke="#1e90ff" points="570.5746,-47.2037 580.0094,-42.3835 569.628,-40.2679 570.5746,-47.2037"/>
</g>
<!-- vcruntime140_1.dll&#45;&gt;vcruntime140.dll -->
<g id="edge8" class="edge">
<title>vcruntime140_1.dll-&gt;vcruntime140.dll</title>
<path fill="none" stroke="#1e90ff" d="M386.647,-95.4791C396.3344,-98.2353 406.3718,-101.091 416.1665,-103.8776"/>
<polygon fill="#1e90ff" stroke="#1e90ff" points="415.2822,-107.2649 425.8583,-106.635 417.1978,-100.5321 415.2822,-107.2649"/>
</g>
<!-- kernelbase.dll&#45;&gt;kernelbase.dll -->
<g id="edge19" class="edge">
<title>kernelbase.dll-&gt;kernelbase.dll</title>
<path fill="none" stroke="#1e90ff" d="M733.6,-87.5834C730.3715,-96.9698 737.3666,-105.4307 754.5854,-105.4307 765.0781,-105.4307 771.7743,-102.2889 774.6742,-97.7103"/>
<polygon fill="#1e90ff" stroke="#1e90ff" points="778.1751,-97.8532 775.5708,-87.5834 771.2024,-97.2358 778.1751,-97.8532"/>
</g>
<!-- kernelbase.dll&#45;&gt;ntdll.dll -->
<g id="edge20" class="edge">
<title>kernelbase.dll-&gt;ntdll.dll</title>
<path fill="none" stroke="#1e90ff" d="M805.8824,-69.4307C814.5131,-69.4307 823.3557,-69.4307 831.6427,-69.4307"/>
<polygon fill="#1e90ff" stroke="#1e90ff" points="831.7847,-72.9308 841.7846,-69.4307 831.7846,-65.9308 831.7847,-72.9308"/>
</g>
</g>
</svg>