<?xml version="1.0" encoding="UTF-8" standalone="no"?><!DOCTYPE svg PUBLIC "-//W3C//DTD SVG 1.1//EN" "http://www.w3.org/Graphics/SVG/1.1/DTD/svg11.dtd"><!-- Generated by graphviz version 2.40.1 (20161225.0304)
 --><!-- Title: windep Pages: 1 --><svg xmlns="http://www.w3.org/2000/svg" xmlns:xlink="http://www.w3.org/1999/xlink" width="297pt" height="476pt" viewBox="0.00 0.00 297.34 476.00">
<g id="graph0" class="graph" transform="scale(1 1) rotate(0) translate(4 472)">
<title>windep</title>
<!-- windep.exe -->
<g id="node1" class="node">
<title>windep.exe</title>
<polygon fill="none" stroke="#1e90ff" stroke-width="2" points="129.5881,-468 42.9889,-468 42.9889,-432 129.5881,-432 129.5881,-468"/>
<text text-anchor="middle" x="86.2885" y="-445.8" font-family="Helvetica,sans-Serif" font-size="14.00" fill="#1e90ff">windep.exe</text>
</g>
<!-- kernel32.dll -->
<g id="node2" class="node">
<title>kernel32.dll</title>
<polygon fill="none" stroke="#1e90ff" stroke-width="2" points="108.8562,-180 21.7208,-180 21.7208,-144 108.8562,-144 108.8562,-180"/>
<text text-anchor="middle" x="65.2885" y="-157.8" font-family="Helvetica,sans-Serif" font-size="14.00" fill="#1e90ff">kernel32.dll</text>
</g>
<!-- windep.exe&#45;&gt;kernel32.dll -->
<g id="edge1" class="edge">
<title>windep.exe-&gt;kernel32.dll</title>
<path fill="none" stroke="#1e90ff" d="M53.3004,-431.773C40.1893,-422.7719 26.3362,-410.6712 18.2885,-396 -12.658,-339.584 6.6263,-316.2597 3.2885,-252 2.4585,-236.0215 -3.3396,-230.5626 3.2885,-216 8.4625,-204.6322 17.3428,-194.7268 26.7913,-186.6122"/>
<polygon fill="#1e90ff" stroke="#1e90ff" points="29.1614,-189.1986 34.7927,-180.2243 24.794,-183.7281 29.1614,-189.1986"/>
</g>
<!-- msvcp140.dll -->
<g id="node3" class="node">
<title>msvcp140.dll</title>
<polygon fill="none" stroke="#1e90ff" stroke-width="2" points="134.9664,-396 37.6106,-396 37.6106,-360 134.9664,-360 134.9664,-396"/>
<text text-anchor="middle" x="86.2885" y="-373.8" font-family="Helvetica,sans-Serif" font-size="14.00" fill="#1e90ff">msvcp140.dll</text>
</g>
<!-- windep.exe&#45;&gt;msvcp140.dll -->
<g id="edge2" class="edge">
<title>windep.exe-&gt;msvcp140.dll</title>
<path fill="none" stroke="#1e90ff" d="M86.2885,-431.8314C86.2885,-424.131 86.2885,-414.9743 86.2885,-406.4166"/>
<polygon fill="#1e90ff" stroke="#1e90ff" points="89.7886,-406.4132 86.2885,-396.4133 82.7886,-406.4133 89.7886,-406.4132"/>
</g>
<!-- ucrtbase.dll -->
<g id="node4" class="node">
<title>ucrtbase.dll</title>
<polygon fill="none" stroke="#1e90ff" stroke-width="2" points="252.8575,-180 165.7194,-180 165.7194,-144 252.8575,-144 252.8575,-180"/>
<text text-anchor="middle" x="209.2885" y="-157.8" font-family="Helvetica,sans-Serif" font-size="14.00" fill="#1e90ff">ucrtbase.dll</text>
</g>
<!-- windep.exe&#45;&gt;ucrtbase.dll -->
<g id="edge3" class="edge">
<title>windep.exe-&gt;ucrtbase.dll</title>
<path fill="none" stroke="#1e90ff" d="M129.8475,-436.0544C176.9231,-418.364 249.4684,-382.8582 281.2885,-324 306.4928,-277.3792 265.2146,-220.1807 235.4876,-187.7276"/>
<polygon fill="#1e90ff" stroke="#1e90ff" points="238.0058,-185.2964 228.6011,-180.4177 232.9107,-190.0964 238.0058,-185.2964"/>
</g>
<!-- vcruntime140.dll -->
<g id="node5" class="node">
<title>vcruntime140.dll</title>
<polygon fill="none" stroke="#1e90ff" stroke-width="2" points="137.1889,-252 19.388,-252 19.388,-216 137.1889,-216 137.1889,-252"/>
<text text-anchor="middle" x="78.2885" y="-229.8" font-family="Helvetica,sans-Serif" font-size="14.00" fill="#1e90ff">vcruntime140.dll</text>
</g>
<!-- windep.exe&#45;&gt;vcruntime140.dll -->
<g id="edge4" class="edge">
<title>windep.exe-&gt;vcruntime140.dll</title>
<path fill="none" stroke="#1e90ff" d="M58.3276,-431.862C46.7345,-422.6621 34.5482,-410.3809 28.2885,-396 8.3159,-350.1158 36.9248,-293.7254 58.3961,-261.0214"/>
<polygon fill="#1e90ff" stroke="#1e90ff" points="61.4923,-262.6923 64.2166,-252.4537 55.702,-258.7587 61.4923,-262.6923"/>
</g>
<!-- vcruntime140_1.dll -->
<g id="node6" class="node">
<title>vcruntime140_1.dll</title>
<polygon fill="none" stroke="#1e90ff" stroke-width="2" points="272.2549,-324 138.3221,-324 138.3221,-288 272.2549,-288 272.2549,-324"/>
<text text-anchor="middle" x="205.2885" y="-301.8" font-family="Helvetica,sans-Serif" font-size="14.00" fill="#1e90ff">vcruntime140_1.dll</text>
</g>
<!-- windep.exe&#45;&gt;vcruntime140_1.dll -->
<g id="edge5" class="edge">
<title>windep.exe-&gt;vcruntime140_1.dll</title>
<path fill="none" stroke="#1e90ff" d="M108.0718,-431.8249C119.4594,-421.8191 133.2787,-408.8512 144.2885,-396 161.3854,-376.0435 177.9273,-351.1757 189.4615,-332.6403"/>
<polygon fill="#1e90ff" stroke="#1e90ff" points="192.4555,-334.4531 194.702,-324.0991 186.4891,-330.7923 192.4555,-334.4531"/>
</g>
<!-- kernelbase.dll -->
<g id="node7" class="node">
<title>kernelbase.dll</title>
<polygon fill="none" stroke="#1e90ff" stroke-width="2" points="170.6383,-108 67.9387,-108 67.9387,-72 170.6383,-72 170.6383,-108"/>
<text text-anchor="middle" x="119.2885" y="-85.8" font-family="Helvetica,sans-Serif" font-size="14.00" fill="#1e90ff">kernelbase.dll</text>
</g>
<!-- kernel32.dll&#45;&gt;kernelbase.dll -->
<g id="edge15" class="edge">
<title>kernel32.dll-&gt;kernelbase.dll</title>
<path fill="none" stroke="#1e90ff" d="M78.915,-143.8314C85.1345,-135.5386 92.6207,-125.557 99.4485,-116.4533"/>
<polygon fill="#1e90ff" stroke="#1e90ff" points="102.2785,-118.5133 105.4785,-108.4133 96.6785,-114.3133 102.2785,-118.5133"/>
</g>
<!-- ntdll.dll -->
<g id="node8" class="node">
<title>ntdll.dll</title>
<polygon fill="none" stroke="#1e90ff" stroke-width="2" points="148.8455,-36 89.7314,-36 89.7314,0 148.8455,0 148.8455,-36"/>
<text text-anchor="middle" x="119.2885" y="-13.8" font-family="Helvetica,sans-Serif" font-size="14.00" fill="#1e90ff">ntdll.dll</text>
</g>
<!-- kernel32.dll&#45;&gt;ntdll.dll -->
<g id="edge16" class="edge">
<title>kernel32.dll-&gt;ntdll.dll</title>
<path fill="none" stroke="#1e90ff" d="M59.2811,-143.8815C54.1117,-125.0593 48.9675,-95.1743 59.2885,-72 64.3219,-60.6983 73.019,-50.7696 82.2544,-42.611"/>
<polygon fill="#1e90ff" stroke="#1e90ff" points="84.57,-45.2382 90.0701,-36.1828 80.1235,-39.8319 84.57,-45.2382"/>
</g>
<!-- msvcp140.dll&#45;&gt;kernel32.dll -->
<g id="edge11" class="edge">
<title>msvcp140.dll-&gt;kernel32.dll</title>
<path fill="none" stroke="#1e90ff" d="M70.9148,-359.8779C52.3256,-336.6584 22.0668,-294.3314 10.2885,-252 5.9996,-236.5855 4.0978,-230.7538 10.2885,-216 14.8937,-205.0247 22.9382,-195.1573 31.4762,-186.9529"/>
<polygon fill="#1e90ff" stroke="#1e90ff" points="33.9186,-189.464 39.0322,-180.1849 29.2482,-184.2497 33.9186,-189.464"/>
</g>
<!-- msvcp140.dll&#45;&gt;ucrtbase.dll -->
<g id="edge12" class="edge">
<title>msvcp140.dll-&gt;ucrtbase.dll</title>
<path fill="none" stroke="#1e90ff" d="M94.2316,-359.7492C102.4252,-341.3354 115.8666,-312.2388 129.2885,-288 148.7406,-252.8711 173.9578,-214.1005 190.8321,-188.97"/>
<polygon fill="#1e90ff" stroke="#1e90ff" points="193.9501,-190.6068 196.6454,-180.3605 188.1487,-186.6896 193.9501,-190.6068"/>
</g>
<!-- msvcp140.dll&#45;&gt;vcruntime140.dll -->
<g id="edge13" class="edge">
<title>msvcp140.dll-&gt;vcruntime140.dll</title>
<path fill="none" stroke="#1e90ff" d="M85.2753,-359.7623C83.9108,-335.201 81.4689,-291.2474 79.8637,-262.3541"/>
<polygon fill="#1e90ff" stroke="#1e90ff" points="83.3429,-261.88 79.2935,-252.0896 76.3536,-262.2684 83.3429,-261.88"/>
</g>
<!-- msvcp140.dll&#45;&gt;vcruntime140_1.dll -->
<g id="edge14" class="edge">
<title>msvcp140.dll-&gt;vcruntime140_1.dll</title>
<path fill="none" stroke="#1e90ff" d="M116.3172,-359.8314C131.538,-350.6221 150.2012,-339.3301 166.4968,-329.4706"/>
<polygon fill="#1e90ff" stroke="#1e90ff" points="168.5254,-332.3341 175.2694,-324.1628 164.9017,-326.345 168.5254,-332.3341"/>
</g>
<!-- ucrtbase.dll&#45;&gt;kernelbase.dll -->
<g id="edge17" class="edge">
<title>ucrtbase.dll-&gt;kernelbase.dll</title>
<path fill="none" stroke="#1e90ff" d="M186.5777,-143.8314C175.4925,-134.9632 161.9931,-124.1637 150.0033,-114.5718"/>
<polygon fill="#1e90ff" stroke="#1e90ff" points="151.9872,-111.6768 141.992,-108.1628 147.6143,-117.1429 151.9872,-111.6768"/>
</g>
<!-- ucrtbase.dll&#45;&gt;ntdll.dll -->
<g id="edge18" class="edge">
<title>ucrtbase.dll-&gt;ntdll.dll</title>
<path fill="none" stroke="#1e90ff" d="M210.9958,-143.6754C211.8937,-124.4129 210.6944,-93.9196 197.2885,-72 187.9661,-56.7572 172.5376,-44.7359 157.8523,-35.9432"/>
<polygon fill="#1e90ff" stroke="#1e90ff" points="159.2971,-32.7401 148.8658,-30.8857 155.8639,-38.8404 159.2971,-32.7401"/>
</g>
<!-- vcruntime140.dll&#45;&gt;kernel32.dll -->
<g id="edge9" class="edge">
<title>vcruntime140.dll-&gt;kernel32.dll</title>
<path fill="none" stroke="#1e90ff" d="M75.008,-215.8314C73.6177,-208.131 71.9644,-198.9743 70.4193,-190.4166"/>
<polygon fill="#1e90ff" stroke="#1e90ff" points="73.8343,-189.6322 68.6131,-180.4133 66.9457,-190.8761 73.8343,-189.6322"/>
</g>
<!-- vcruntime140.dll&#45;&gt;ucrtbase.dll -->
<g id="edge10" class="edge">
<title>vcruntime140.dll-&gt;ucrtbase.dll</title>
<path fill="none" stroke="#1e90ff" d="M111.3453,-215.8314C128.2562,-206.5368 149.027,-195.1208 167.0826,-185.1971"/>
<polygon fill="#1e90ff" stroke="#1e90ff" points="169.1645,-188.0468 176.2422,-180.1628 165.7928,-181.9122 169.1645,-188.0468"/>
</g>
<!-- vcruntime140_1.dll&#45;&gt;kernel32.dll -->
<g id="edge6" class="edge">
<title>vcruntime140_1.dll-&gt;kernel32.dll</title>
<path fill="none" stroke="#1e90ff" d="M196.2677,-287.9107C186.0143,-268.5686 167.8706,-237.7496 146.2885,-216 134.8629,-204.4858 120.6194,-194.015 107.2768,-185.4238"/>
<polygon fill="#1e90ff" stroke="#1e90ff" points="109.0141,-182.3824 98.6775,-180.0575 105.3082,-188.321 109.0141,-182.3824"/>
</g>
<!-- vcruntime140_1.dll&#45;&gt;ucrtbase.dll -->
<g id="edge7" class="edge">
<title>vcruntime140_1.dll-&gt;ucrtbase.dll</title>
<path fill="none" stroke="#1e90ff" d="M210.4076,-287.6727C213.0405,-277.2978 215.9681,-264.0284 217.2885,-252 219.5423,-231.4685 217.3612,-208.2481 214.7112,-190.5363"/>
<polygon fill="#1e90ff" stroke="#1e90ff" points="218.1042,-189.5974 213.036,-180.2935 211.196,-190.7273 218.1042,-189.5974"/>
</g>
<!-- vcruntime140_1.dll&#45;&gt;vcruntime140.dll -->
<g id="edge8" class="edge">
<title>vcruntime140_1.dll-&gt;vcruntime140.dll</title>
<path fill="none" stroke="#1e90ff" d="M173.241,-287.8314C156.8465,-278.5368 136.7099,-267.1208 119.2056,-257.1971"/>
<polygon fill="#1e90ff" stroke="#1e90ff" points="120.7511,-254.05 110.3257,-252.1628 117.2988,-260.1395 120.7511,-254.05"/>
</g>
<!-- kernelbase.dll&#45;&gt;kernelbase.dll -->
<g id="edge19" class="edge">
<title>kernelbase.dll-&gt;kernelbase.dll</title>
<path fill="none" stroke="#1e90ff" d="M170.5725,-102.985C180.9977,-101.5705 188.4631,-97.2422 188.4631,-90 188.4631,-85.3605 185.3993,-81.9168 180.4563,-79.669"/>
<polygon fill="#1e90ff" stroke="#1e90ff" points="181.1381,-76.2281 170.5725,-77.015 179.3227,-82.9886 181.1381,-76.2281"/>
</g>
<!-- kernelbase.dll&#45;&gt;ntdll.dll -->
<g id="edge20" class="edge">
<title>kernelbase.dll-&gt;ntdll.dll</title>
<path fill="none" stroke="#1e90ff" d="M119.2885,-71.8314C119.2885,-64.131 119.2885,-54.9743 119.2885,-46.4166"/>
<polygon fill="#1e90ff" stroke="#1e90ff" points="122.7886,-46.4132 119.2885,-36.4133 115.7886,-46.4133 122.7886,-46.4132"/>
</g>
</g>
</svg>